/* XPM */
static char * zero_xpm[] = {
"70 70 3 1",
" 	c #FFFFFE",
".	c #000000",
"+	c #FDFDFC",
"                                                                      ",
"                                                                      ",
"                                                                      ",
"                                                                      ",
"                                                                      ",
"                                                                      ",
"                                                                      ",
"                                                                      ",
"                                                                      ",
"                                                                      ",
"                       .........................       +              ",
"                       .........................                      ",
"                    ...............................                   ",
"                    ...............................                   ",
"                    ...............................                   ",
"                  .....                         .....                 ",
"                  .....                         .....                 ",
"                  .....                         .....                 ",
"                  .....                         .....                 ",
"                  .....                         .....                 ",
"                  .....                         .....                 ",
"                  .....                         .....                 ",
"                  .....                         .....                 ",
"                  .....                         .....                 ",
"                  .....                         .....                 ",
"                  .....                         .....                 ",
"                  .....                         .....                 ",
"                  .....                         .....                 ",
"                  .....                         .....                 ",
"                  .....                         .....                 ",
"                  .....                         .....                 ",
"                  .....                         .....                 ",
"                  .....                         .....                 ",
"                  .....                         .....                 ",
"                  .....                         .....                 ",
"                  .....                         .....                 ",
"                  .....                         .....                 ",
"                  .....                         .....                 ",
"                  .....                         .....                 ",
"                  .....                         .....                 ",
"                  .....                         .....                 ",
"                  .....                         .....                 ",
"                  .....                         .....                 ",
"                  .....                         .....                 ",
"                  .....                         .....                 ",
"                  .....                         .....                 ",
"                  .....                         .....                 ",
"                  .....                         .....                 ",
"                  .....                         .....                 ",
"                  .....                         .....                 ",
"                  .....                         .....                 ",
"                  .....                         .....                 ",
"                  .....                         .....                 ",
"                  .....                         .....                 ",
"                  .....                         .....                 ",
"                    ...............................                   ",
"                    ...............................                   ",
"                    ...............................                   ",
"                       .........................                      ",
"                       .........................                      ",
"                                                                      ",
"                                                                      ",
"                                                                      ",
"                                                                      ",
"                                                                      ",
"                                                                      ",
"                                                                      ",
"                                                                      ",
"                                                                      ",
"                                                                      "};
