/* XPM */
static char * one_xpm[] = {
"70 70 10 1",
" 	c #FFFFFE",
".	c #FBFBFA",
"+	c #F9F9F8",
"@	c #FCFCFB",
"#	c #FDFDFC",
"$	c #F8F8F7",
"%	c #F6F6F5",
"&	c #F7F7F6",
"*	c #000000",
"=	c #FEFEFD",
"                                                                      ",
"                                                                      ",
"                                                                      ",
"                                                                      ",
"                                                                      ",
"                                                                      ",
"                                                                      ",
"                                                                      ",
"                                                                      ",
"                    .++.@@##@....$%&                                  ",
"                   *******************                                ",
"                   *******************                                ",
"                   *******************                                ",
"                   *******************                                ",
"                   ******************* =#                             ",
"                   *****         *****                                ",
"                   *****         *****                                ",
"                                 *****                                ",
"                                 *****                                ",
"                                 *****                                ",
"                                 *****                                ",
"                                 *****                                ",
"                                 *****                                ",
"                                 *****                                ",
"                                 *****                                ",
"                                 *****                                ",
"                                 *****                                ",
"                                 *****                                ",
"                                 *****                                ",
"                                 *****                                ",
"                                 *****                                ",
"                                 *****                                ",
"                                 *****                                ",
"                                 *****                                ",
"                                 *****                                ",
"                                 *****                                ",
"                                 *****                                ",
"                                 *****                                ",
"                                 *****                                ",
"                                 *****                                ",
"                                 *****                                ",
"                                 *****                                ",
"                                 *****                                ",
"                                 *****                                ",
"                                 *****                                ",
"                                 *****                                ",
"                                 *****                                ",
"                                 *****                                ",
"                                 *****                                ",
"                                 *****                                ",
"                                 *****                                ",
"                                 *****                                ",
"                                 *****                                ",
"                                 *****                                ",
"                                 *****                                ",
"                   *********************************                  ",
"                   *********************************                  ",
"                   *********************************                  ",
"                   *********************************                  ",
"                   *********************************                  ",
"                                                                      ",
"                                                                      ",
"                                                                      ",
"                                                                      ",
"                                                                      ",
"                                                                      ",
"                                                                      ",
"                                                                      ",
"                                                                      ",
"                                                                      "};
