/* XPM */
static char * three_xpm[] = {
"70 70 9 1",
" 	c #FFFFFE",
".	c #000000",
"+	c #FEFEFD",
"@	c #FDFDFC",
"#	c #FCFCFB",
"$	c #FBFBFA",
"%	c #F8F8F7",
"&	c #F5F5F4",
"*	c #0D0D0D",
"                                                                      ",
"                                                                      ",
"                                                                      ",
"                                                                      ",
"                                                                      ",
"                                                                      ",
"                                                                      ",
"                                                                      ",
"                                                                      ",
"                                                                      ",
"                  ...................................                 ",
"                  ...................................                 ",
"                  ...................................                 ",
"                  ...................................                 ",
"                  ...................................                 ",
"                  .....                       + .....                 ",
"                                               @.....                 ",
"                                                .....                 ",
"                                                .....                 ",
"                                                .....                 ",
"                                                .....                 ",
"                                                .....                 ",
"                                               +.....                 ",
"                                                .....                 ",
"                                                .....                 ",
"                                                .....                 ",
"                                                .....                 ",
"                                                .....                 ",
"                                                .....                 ",
"                                              + .....                 ",
"                                                .....                 ",
"                                               @.....                 ",
"                                               +.....                 ",
"                                 ....................                 ",
"                                 ....................                 ",
"                                 ....................                 ",
"                                 ....................                 ",
"                                 ....................                 ",
"                                                .....                 ",
"                                                .....                 ",
"                                           +   #.....                 ",
"                                                .....                 ",
"                                               $.....                 ",
"                                               %.....                 ",
"                                               $.....                 ",
"                                               $.....                 ",
"                                               @.....                 ",
"                                               $.....                 ",
"                                               $.....                 ",
"                                               @.....                 ",
"                                               +.....                 ",
"                                               +.....                 ",
"                                                .....                 ",
"                                                .....                 ",
"                  .....                    +  & .....                 ",
"                  .............................*.....                 ",
"                  ...................................                 ",
"                  ...................................                 ",
"                  ...................................                 ",
"                  ...................................                 ",
"                                                                      ",
"                                                                      ",
"                                                                      ",
"                                                                      ",
"                                                                      ",
"                                                                      ",
"                                                                      ",
"                                                                      ",
"                                                                      ",
"                                                                      "};
