/* XPM */
static char * four_xpm[] = {
"70 70 15 1",
" 	c #FFFFFE",
".	c #000000",
"+	c #F6F6F5",
"@	c #FDFDFC",
"#	c #FCFCFB",
"$	c #FEFEFD",
"%	c #FAFAF9",
"&	c #FBFBFA",
"*	c #F9F9F8",
"=	c #F5F5F4",
"-	c #F0F0EF",
";	c #EEEEED",
">	c #EFEFEE",
",	c #E8E8E7",
"'	c #F8F8F7",
"                                                                      ",
"                                                                      ",
"                                                                      ",
"                                                                      ",
"                                                                      ",
"                                                                      ",
"                                                                      ",
"                                                                      ",
"                                                                      ",
"                                                                      ",
"                               ..........                             ",
"                               ..........                             ",
"                               ..........                             ",
"                               ..........                             ",
"                              ...........                             ",
"                            ......  .....                             ",
"                            .....   .....                             ",
"                            .....   .....                             ",
"                            .....   .....                             ",
"                           ......   .....                             ",
"                         ......     .....                             ",
"                         .....      .....                             ",
"                         .....      .....                             ",
"                         .....      .....                             ",
"                        ......      .....                             ",
"                      ......        .....                             ",
"                      .....         .....                             ",
"                      .....         .....                             ",
"                      .....         .....                             ",
"                     ......         .....                             ",
"                   ......           .....                             ",
"                   .....            .....                             ",
"                   .....            .....                             ",
"                +++.....     @     #.....      $@@#         %++       ",
"                $$......     @      .....       @@@         &++       ",
"                 ...............................@@@         #++       ",
"                 ...............................@@@         $++       ",
"                 ...............................@@%          ++       ",
"                 ...............................                      ",
"                 ...............................                      ",
"                 *$&&%&&%=-;;>*   $,.....'                            ",
"                        @@@#@@     $.....                             ",
"                   @@@@@@@@ @@      .....                             ",
"                                    .....                             ",
"                                    .....                             ",
"                                    .....                             ",
"                                    .....                             ",
"                                    .....                             ",
"                                    .....                             ",
"                                    .....                             ",
"                                    .....                             ",
"                                    .....                             ",
"                                    .....                             ",
"                                    .....                             ",
"                                    .....                             ",
"                                    .....                             ",
"                                    .....                             ",
"                                    .....                             ",
"                                    .....                             ",
"                                    .....                             ",
"                                                                      ",
"                                                                      ",
"                                                                      ",
"                                                                      ",
"                                                                      ",
"                                                                      ",
"                                                                      ",
"                                                                      ",
"                                                                      ",
"                                                                      "};
