/* XPM */
static char * seven_xpm[] = {
"70 70 8 1",
" 	c #FFFFFE",
".	c #000000",
"+	c #FCFCFB",
"@	c #FDFDFC",
"#	c #FBFBFA",
"$	c #FEFEFD",
"%	c #F8F8F7",
"&	c #F6F6F5",
"                                                                      ",
"                                                                      ",
"                                                                      ",
"                                                                      ",
"                                                                      ",
"                                                                      ",
"                                                                      ",
"                                                                      ",
"                                                                      ",
"                                                                      ",
"                  ...................................                 ",
"                  ...................................                 ",
"                  ...................................                 ",
"                  ...................................                 ",
"                  ...................................                 ",
"                                 +@@++          .....                 ",
"                                 @@@@@          .....                 ",
"                                 @@@@@          .....                 ",
"                                 @@@@@         ......                 ",
"                                 @@@@@         ......                 ",
"                                 @@@@@        ......                  ",
"                                 @@@@@        ......                  ",
"                                 @@@@@        .....                   ",
"                                 @@@@@       ......                   ",
"                                 @@@@@       ......                   ",
"                                            ......                    ",
"                                            ......                    ",
"                                            .....                     ",
"                                           ......                     ",
"                                           ......                     ",
"                                          ......                      ",
"                                          ......                      ",
"                                         ......                       ",
"                                         ......                       ",
"                                         ......                       ",
"                                        #.....                        ",
"                                        ......                        ",
"                                        .....                         ",
"                                       ......                         ",
"                                       ......                         ",
"                                      ......                          ",
"                                      ......                          ",
"                                      .....                           ",
"                                     ......                           ",
"                                     ......                           ",
"                                    ......                            ",
"                                    ......                            ",
"                                    .....                             ",
"                                   ......                             ",
"                                   ......                             ",
"                                  ......                              ",
"                                  ......                              ",
"                                  .....                               ",
"                                 ......                               ",
"                                 ......                               ",
"                                ......                                ",
"                                ......                                ",
"                                .....$                                ",
"                                .....                                 ",
"                                .....                                 ",
"                                 @#%&                                 ",
"                                                                      ",
"                                                                      ",
"                                                                      ",
"                                                                      ",
"                                                                      ",
"                                                                      ",
"                                                                      ",
"                                                                      ",
"                                                                      "};
