/* XPM */
static char * eight_xpm[] = {
"70 70 13 1",
" 	c #FFFFFE",
".	c #000000",
"+	c #EEEEED",
"@	c #F6F6F5",
"#	c #FDFDFC",
"$	c #F7F7F6",
"%	c #FEFEFD",
"&	c #F9F9F8",
"*	c #EDEDEC",
"=	c #FAFAF9",
"-	c #FBFBFA",
";	c #FCFCFB",
">	c #F8F8F7",
"                                                                      ",
"                                                                      ",
"                                                                      ",
"                                                                      ",
"                                                                      ",
"                                                                      ",
"                                                                      ",
"                                                                      ",
"                                                                      ",
"                                                                      ",
"                       .........................                      ",
"                       .........................                      ",
"                    ...............................                   ",
"                    ...............................                   ",
"                    ...............................                   ",
"                  .....+@#                   #$%.....                 ",
"                  .....@@                    #& .....                 ",
"                  .....                      #  .....                 ",
"                  .....                         .....                 ",
"                  .....                         .....                 ",
"                  .....                         .....                 ",
"                  .....                         .....                 ",
"                  .....                         .....                 ",
"                  .....                         .....                 ",
"                  .....                         .....                 ",
"                  .....                         .....                 ",
"                  .....                         .....                 ",
"                  .....                         .....                 ",
"                  .....                         .....                 ",
"                  .....                         .....                 ",
"                  .....*=%                   #%-.....                 ",
"                  .....@@&                    @@.....                 ",
"                  .....@@#                   @@@.....                 ",
"                    ...............................                   ",
"                    ...............................                   ",
"                  #  ............................;;                   ",
"                  % ...............................                   ",
"                  @@...............................                   ",
"                  .....@@@                   #&&.....                 ",
"                  .....@@-                   &#@.....                 ",
"                  .....  #                   &##.....                 ",
"                  .....                         .....                 ",
"                  .....                         .....                 ",
"                  .....                         .....                 ",
"                  .....                         .....                 ",
"                  .....                         .....                 ",
"                  .....                         .....                 ",
"                  .....                         .....                 ",
"                  .....                         .....                 ",
"                  .....                         .....                 ",
"                  .....                         .....                 ",
"                  .....                         .....                 ",
"                  .....@ #                      .....                 ",
"                  .....@@                     ##.....                 ",
"                  .....@@#                    #>.....                 ",
"                  @@...............................                   ",
"                  @@...............................                   ",
"                    ...............................                   ",
"                       .........................                      ",
"                       .........................                      ",
"                                                                      ",
"                                                                      ",
"                                                                      ",
"                                                                      ",
"                                                                      ",
"                                                                      ",
"                                                                      ",
"                                                                      ",
"                                                                      ",
"                                                                      "};
