/* XPM */
static char * nine_xpm[] = {
"70 70 2 1",
" 	c #FFFFFE",
".	c #000000",
"                                                                      ",
"                                                                      ",
"                                                                      ",
"                                                                      ",
"                                                                      ",
"                                                                      ",
"                                                                      ",
"                                                                      ",
"                                                                      ",
"                                                                      ",
"                  ...................................                 ",
"                  ...................................                 ",
"                  ...................................                 ",
"                  ...................................                 ",
"                  ...................................                 ",
"                  .......                     .......                 ",
"                  .......                     .......                 ",
"                  .....                         .....                 ",
"                  .....                         .....                 ",
"                  .....                         .....                 ",
"                  .....                         .....                 ",
"                  .....                         .....                 ",
"                  .....                         .....                 ",
"                  .....                         .....                 ",
"                  .....                         .....                 ",
"                  .....                         .....                 ",
"                  .....                         .....                 ",
"                  .....                         .....                 ",
"                  .....                         .....                 ",
"                  .....                         .....                 ",
"                  .......                     .......                 ",
"                  .......                     .......                 ",
"                  ...................................                 ",
"                  ...................................                 ",
"                  ...................................                 ",
"                  ...................................                 ",
"                  ...................................                 ",
"                                                .....                 ",
"                                                .....                 ",
"                                                .....                 ",
"                                                .....                 ",
"                                                .....                 ",
"                                                .....                 ",
"                                                .....                 ",
"                                                .....                 ",
"                                                .....                 ",
"                                                .....                 ",
"                                                .....                 ",
"                                                .....                 ",
"                                                .....                 ",
"                                                .....                 ",
"                                                .....                 ",
"                                                .....                 ",
"                                                .....                 ",
"                  .....                         .....                 ",
"                  ...................................                 ",
"                  ...................................                 ",
"                  ...................................                 ",
"                  ...................................                 ",
"                  ...................................                 ",
"                                                                      ",
"                                                                      ",
"                                                                      ",
"                                                                      ",
"                                                                      ",
"                                                                      ",
"                                                                      ",
"                                                                      ",
"                                                                      ",
"                                                                      "};
