/* XPM */
static char * letters_xpm[] = {
"140 70 2 1",
" 	c #FFFFFE",
".	c #000000",
"                          .....                                                                                                             ",
"                          .....                                                              ..........                                     ",
"                        .......                                                  ...........................                                ",
"                        ... ....                                                 .............................                              ",
"                       ....  ...                                                 ...                  ... ... ..                            ",
"                       ...   ....                                                ...                    ...... .                            ",
"                      ....    ....                                               ...                          ..                            ",
"                      ....     ....                                              ...                          ...                           ",
"                      ...      ....                                              ...                            .                           ",
"                     ....       ...                                              ...                            ..                          ",
"                     ....        ...                                             ...                            ...                         ",
"                     ...         ....                                            ...                            ...                         ",
"                    ....          ...                                            ...                            ...                         ",
"                    ...           ....                                           ...                            ...                         ",
"                   ....            ...                                           ...                            ...                         ",
"                   ....             ...                                          ...                            ...                         ",
"                   ...              ....                                         ...                            ...                         ",
"                  ....               ...                                         ...                            ...                         ",
"                  ...                ....                                        ...                            ...                         ",
"                  ...                 ...                                        ...                            ...                         ",
"                 ....                  ...                                       ...                            ...                         ",
"                 ...                   ....                                      ...                             ..                         ",
"                ....                    ...                                      ...                             ..                         ",
"                ....                    ....                                     ...                             ..                         ",
"                ...                      ...                                     ...                             ..                         ",
"               ....                       ...                                    ...                             ..                         ",
"               ...                        ....                                   ...                             ..                         ",
"              ....                         ...                                   ...                             ..                         ",
"              ....                         ....                                  ...                             ..                         ",
"              ...                           ...                                  ...                             ..                         ",
"             ....                           ....                                 ...                         ......                         ",
"             ...                             ....                                ...     ............    ..........                         ",
"             ...                              ...                                ..................................                         ",
"            ....                              ....                               ............................                               ",
"           ....                                ...                               ...            ...      ....                               ",
"           .............................      .....                              ...                     ....                               ",
"          .........................................                              ...                      ....                              ",
"          ..........................................                             ...                      .....                             ",
"         ............................................                            ...                       ......                           ",
"         ....                                    ....                            ...                        ......                          ",
"         ....                                     ....                           ...                         .....                          ",
"         ....                                      ...                           ...                           ...                          ",
"         ...                                       ....                          ...                            ...                         ",
"        ....                                        ....                         ...                             ..                         ",
"        ...                                         ....                         ...                             ...                        ",
"        ...                                          ....                        ...                             ...                        ",
"       ....                                          ....                        ...                             ...                        ",
"       ...                                            ....                       ...                             ...                        ",
"      ....                                             ....                      ...                             ...                        ",
"      ....                                             ....                      ...                             ...                        ",
"      ...                                               ....                     ...                             ...                        ",
"     ....                                               ....                     ...                             ...                        ",
"     ...                                                 ....                    ...                             ...                        ",
"     ...                                                 .....                   ...                             ...                        ",
"    ....                                                  ....                   ...                             ...                        ",
"    ...                                                   .....                  ...                             ...                        ",
"   ....                                                    ....                  ...                             ...                        ",
"   ....                                                    .....                 ...                            ...                         ",
"   ...                                                     ......                ...                            ...                         ",
"  ....                                                      .....                ...                            ...                         ",
"  ....                                                       .....               ...                          ....                          ",
"  ...                                                         .....              ...                        .. ...                          ",
" ....                                                         ......             ...                      .......                           ",
"....                                                           ... .             ...  ..........................                            ",
"....                                                            .....            ... . .................. ......                            ",
"....                                                            ......           ..............................                             ",
"...                                                              .....           ..............................                             ",
"...                                                              .. ..                                                                      ",
"...                                                               ....                                                                      ",
" .                                                                ....                                                                      "};
