/* XPM */
static char * zero_xpm[] = {
"60 60 57 1",
" 	c #FFFFFE",
".	c #E8E8E8",
"+	c #E4E4E4",
"@	c #E0E0E0",
"#	c #CCCCCC",
"$	c #979797",
"%	c #717171",
"&	c #727272",
"*	c #CACACA",
"=	c #969696",
"-	c #898989",
";	c #777777",
">	c #434343",
",	c #000000",
"'	c #010101",
")	c #070707",
"!	c #050505",
"~	c #060606",
"{	c #444444",
"]	c #787878",
"^	c #CDCDCD",
"/	c #808080",
"(	c #242424",
"_	c #080808",
":	c #202020",
"<	c #1C1C1C",
"[	c #292929",
"}	c #2F2F2F",
"|	c #A8A8A8",
"1	c #2C2C2C",
"2	c #313131",
"3	c #0F0F0F",
"4	c #D6D6D6",
"5	c #C2C2C2",
"6	c #878787",
"7	c #0A0A0A",
"8	c #0D0D0D",
"9	c #020202",
"0	c #D0D0D0",
"a	c #7B7B7B",
"b	c #494949",
"c	c #343434",
"d	c #030303",
"e	c #2D2D2D",
"f	c #1F1F1F",
"g	c #474747",
"h	c #505050",
"i	c #CBCBCB",
"j	c #4D4D4D",
"k	c #595959",
"l	c #B4B4B4",
"m	c #C8C8C8",
"n	c #C9C9C9",
"o	c #515151",
"p	c #6E6E6E",
"q	c #DBDBDB",
"r	c #E2E2E2",
"                                                            ",
"                                                            ",
"                                                            ",
"                                                            ",
"                                                            ",
"                   .++++++++++++++++++++.                   ",
"                .@#$%&&&&&&&&&&&&&&&&&&%$#@.                ",
"               *=-;>,,,,,,,,,,,,,,,,')!~{]-=*               ",
"              ^/(,,,,,,,,,,,,,,,,,,,_:<[},,(/^              ",
"              |1,,,,,,,,,,,,,,,,,,,,_:<[23,,1|              ",
"            456<,,,,,,,,,,,,,,,,,,,,')!789,,<654            ",
"           0abc~,'dddddddddddddddddddddddd',~cba0           ",
"          4ae99,,fghhhhhhhhhhhhhhhhhhhhhhgf,,99ea4          ",
"          ij9',,,klmmnmmmmmmmmmmmmmmmmnmmlk,,,'9ji          ",
"          nod,,,,pq                      qp,,,,don          ",
"          mhd,,,,&r                      r&,,,,dhm          ",
"          mhd,,,,&+                      +&,,,,dhm          ",
"          mhd,,,,&+                      +&,,,,dhm          ",
"          mhd,,,,&+                      +&,,,,dhm          ",
"          mhd,,,,&+                      +&,,,,dhm          ",
"          mhd,,,,&+                      +&,,,,dhm          ",
"          mhd,,,,&+                      +&,,,,dhm          ",
"          mhd,,,,&+                      +&,,,,dhm          ",
"          mhd,,,,&+                      +&,,,,dhm          ",
"          mhd,,,,&+                      +&,,,,dhm          ",
"          mhd,,,,&+                      +&,,,,dhm          ",
"          mhd,,,,&+                      +&,,,,dhm          ",
"          mhd,,,,&+                      +&,,,,dhm          ",
"          mhd,,,,&+                      +&,,,,dhm          ",
"          mhd,,,,&+                      +&,,,,dhm          ",
"          mhd,,,,&+                      +&,,,,dhm          ",
"          mhd,,,,&+                      +&,,,,dhm          ",
"          mhd,,,,&+                      +&,,,,dhm          ",
"          mhd,,,,&+                      +&,,,,dhm          ",
"          mhd,,,,&+                      +&,,,,dhm          ",
"          mhd,,,,&+                      +&,,,,dhm          ",
"          mhd,,,,&+                      +&,,,,dhm          ",
"          mhd,,,,&+                      +&,,,,dhm          ",
"          mhd,,,,&+                      +&,,,,dhm          ",
"          mhd,,,,&+                      +&,,,,dhm          ",
"          mhd,,,,&+                      +&,,,,dhm          ",
"          mhd,,,,&+                      +&,,,,dhm          ",
"          mhd,,,,&+                      +&,,,,dhm          ",
"          mhd,,,,&+                      +&,,,,dhm          ",
"          mhd,,,,&r                      r&,,,,dhm          ",
"          nod,,,,pq                      qp,,,,don          ",
"          ij9',,,klmmnmmmmmmmmmmmmmmmmnmmlk,,,'9ji          ",
"          4ae99,,fghhhhhhhhhhhhhhhhhhhhhhgf,,99ea4          ",
"           0abc~,'dddddddddddddddddddddddd',~cba0           ",
"            456<,,,,,,,,,,,,,,,,,,,,,,,,,,,,<654            ",
"              |1,,,,,,,,,,,,,,,,,,,,,,,,,,,,1|              ",
"              ^/(,,,,,,,,,,,,,,,,,,,,,,,,,,(/^              ",
"               *=-;>,,,,,,,,,,,,,,,,,,,,>;-=*               ",
"                .@#$%&&&&&&&&&&&&&&&&&&%$#@.                ",
"                   .++++++++++++++++++++.                   ",
"                                                            ",
"                                                            ",
"                                                            ",
"                                                            ",
"                                                            "};
